<?xml version="1.0" encoding="UTF-8"?><svg id="Ebene_1" xmlns="http://www.w3.org/2000/svg" width="32" height="32" viewBox="0 0 32 32"><defs><style>.cls-1{fill:#000;stroke-width:0px;}</style></defs><path class="cls-1" d="M2.08,2.08h6.63V.1H1.42C.69.1.1.69.1,1.42v7.29h1.99V2.08ZM1.42,31.9h7.29v-1.99H2.08v-6.63H.1v7.29c0,.73.59,1.33,1.33,1.33M29.92,8.71h1.99V1.42c0-.73-.59-1.33-1.33-1.33h-7.29v1.99h6.63v6.63ZM31.9,30.58v-7.29h-1.99v6.63h-6.63v1.99h7.29c.73,0,1.33-.59,1.33-1.33"/><line class="cls-1" x1="16" y1="9" x2="16" y2="23"/><rect class="cls-1" x="15" y="9" width="2" height="14"/><line class="cls-1" x1="23" y1="16" x2="9" y2="16"/><rect class="cls-1" x="9" y="15" width="14" height="2"/></svg>