<?xml version="1.0" encoding="UTF-8"?>
<svg id="Layer_1" data-name="Layer 1" xmlns="http://www.w3.org/2000/svg" xmlns:xlink="http://www.w3.org/1999/xlink" version="1.1" viewBox="0 0 320 320">
  <defs>
    <style>
      .cls-1 {
        clip-path: url(#clippath);
      }

      .cls-2 {
        fill: none;
      }

      .cls-2, .cls-3 {
        stroke-width: 0px;
      }

      .cls-3 {
        fill: #000;
      }
    </style>
    <clipPath id="clippath">
      <rect class="cls-2" x="15.7" y="51.1" width="288.7" height="197.8"/>
    </clipPath>
  </defs>
  <g class="cls-1">
    <path class="cls-3" d="M247.2,196.4c-2.6,3.2-2,8,1.2,10.5l29.7,23.7c1.4,1.1,3,1.6,4.7,1.6s4.4-1,5.9-2.8c2.6-3.2,2-8-1.2-10.5l-29.7-23.7c-3.3-2.6-8.1-2-10.6,1.2M225.1,150.1c0,23.4-3.6,45.6-10.1,62.5-6,15.5-12.5,21.2-15.3,21.2s-9.3-5.8-15.3-21.2c-4-10.4-6.9-22.8-8.6-36.3,11.5-2.2,20.2-13.1,20.2-26.5s-8.7-24.2-20.1-26.5c1.7-13.3,4.5-25.5,8.5-35.8,6-15.5,12.6-21.2,15.3-21.2s9.3,5.8,15.3,21.2c6.5,17,10.1,39.2,10.1,62.6M159.2,150.1c0,24.8,3.8,47.4,10,64.8-1.9-1.9-4-3.9-6.1-6.1-19.6-19.6-57.2-30.2-68.2-30.2s-4.6,1.1-6,3-1.9,4.3-1.2,6.6c.2.5,1.6,5.5,3.6,9.3,8.8,17.6,11.9,26.3,11.9,33.6s0,.9,0,1.1c-1.5.4-4.9.4-7.4.4-5,0-8.1-.7-9-2-2-2.6-2-11.2-2-13.9s0-9.3-15.2-34.5c-1.4-2.2-3.8-3.6-6.4-3.6h-12.9c-10.6,0-19.5-13.1-19.5-28.5s8.9-28.5,19.5-28.5h44.6c11.1,0,48.7-10.6,68.3-30.2,2.2-2.2,4.2-4.2,6.1-6.1-6.2,17.4-10,40-10,64.8M240.1,150.1c0-53.2-17.3-96.6-38.8-98.7-.5,0-2-.6-7-.2-2,.2-4.2.6-6.1,1.1-9.8,2.6-19.3,12.1-35.6,28.5-16.4,16.4-50,25.8-57.7,25.8h-44.7c-19,0-34.5,19.5-34.5,43.5s15.5,43.5,34.5,43.5h8.5c10.6,18.1,10.9,22.9,10.9,23.1,0,19.6,4.3,30.9,26,30.9s9.8,0,13.8-1.7,8.7-5.6,8.7-14.8-3.8-20.4-10.9-35.1c13.5,3.8,33.7,11.9,45.3,23.4,19.4,19.4,29.2,29.2,41.3,29.2s4.5.2,5.9.2c22.2.1,40.4-44.2,40.4-98.7M288.6,70.3c-2.6-3.2-7.3-3.8-10.5-1.2l-29.7,23.7c-3.2,2.6-3.8,7.3-1.2,10.5,1.5,1.9,3.7,2.8,5.9,2.8s3.3-.5,4.7-1.6l29.7-23.7c3.2-2.5,3.7-7.2,1.1-10.5M304.3,149.9c0-4.1-3.4-7.5-7.5-7.5h-37.5c-4.1,0-7.5,3.4-7.5,7.5s3.4,7.5,7.5,7.5h37.5c4.2,0,7.5-3.4,7.5-7.5"/>
  </g>
  <rect class="cls-2" width="320" height="320"/>
</svg>